<svg xmlns="http://www.w3.org/2000/svg" width="256" height="256" viewBox="0 0 100 100"><rect width="100" height="100" rx="20" fill="#e7cf6e"></rect><path fill="#fff" d="M28.33 20.42Q29.57 19.39 32.44 19.39Q35.32 19.39 36.57 20.97Q37.83 22.56 37.83 28.31L37.83 28.31Q37.83 40.44 38.84 42.51L38.84 42.51Q39.32 43.47 39.98 43.47L39.98 43.47Q42.13 43.47 49.80 33.26Q57.47 23.04 59.32 21.46L59.32 21.46Q62.22 18.95 67.40 18.95L67.40 18.95Q70.52 18.95 70.52 20.67L70.52 20.67Q70.52 22.03 61.62 33.61Q52.72 45.19 52.72 45.94Q52.72 46.68 58.09 55.30Q63.45 63.91 65.12 66.41L65.12 66.41L67.71 70.32Q72.90 78.32 72.90 79.03L72.90 79.03Q72.90 81.05 68.35 81.05Q63.80 81.05 61.12 78.50L61.12 78.50Q59.67 77.09 54.68 69.23Q49.69 61.36 48.20 59.47L48.20 59.47Q44.59 54.90 42.46 54.90Q40.33 54.90 38.88 59.82L38.88 59.82Q38.31 61.80 38.31 69.07Q38.31 76.35 37.17 78.81L37.17 78.81Q36.25 80.74 32.36 80.74Q28.47 80.74 27.72 78.45L27.72 78.45Q27.41 77.49 27.41 65.40L27.41 65.40L27.41 51.74L27.37 48.57L27.37 40.88L27.10 25.02Q27.10 21.46 28.33 20.42Z"></path></svg>